<svg width="151" height="37" viewBox="0 0 151 37" fill="none" xmlns="http://www.w3.org/2000/svg">
<g clip-path="url(#clip0)">
<path d="M51.78 23.4C51.51 24.1 51.13 24.7 50.65 25.2C50.17 25.7 49.59 26.1 48.93 26.4C48.26 26.69 47.54 26.84 46.75 26.84C45.9 26.84 45.15 26.7 44.48 26.4C43.82 26.11 43.25 25.7 42.8 25.19C42.34 24.68 42 24.07 41.76 23.37C41.52 22.67 41.4 21.93 41.4 21.15C41.4 20.36 41.52 19.62 41.76 18.93C42 18.23 42.35 17.63 42.8 17.11C43.25 16.59 43.81 16.19 44.48 15.88C45.15 15.58 45.9 15.42 46.75 15.42C47.54 15.42 48.26 15.57 48.93 15.86C49.6 16.15 50.17 16.56 50.65 17.07C51.13 17.58 51.51 18.19 51.78 18.88C52.05 19.58 52.19 20.33 52.19 21.13C52.19 21.93 52.06 22.71 51.78 23.4ZM51.95 16.52H51.89C51.28 15.59 50.5 14.89 49.53 14.42C48.56 13.95 47.56 13.71 46.54 13.71C45.43 13.71 44.43 13.9 43.53 14.29C42.63 14.68 41.87 15.2 41.23 15.86C40.59 16.53 40.1 17.31 39.75 18.22C39.4 19.13 39.22 20.11 39.22 21.15C39.22 22.2 39.4 23.18 39.75 24.08C40.1 24.99 40.6 25.77 41.23 26.44C41.86 27.11 42.63 27.63 43.53 28.01C44.43 28.39 45.43 28.58 46.54 28.58C47.57 28.58 48.57 28.35 49.53 27.88C50.5 27.42 51.28 26.73 51.89 25.82H51.95V28.21H54.01V9.40002H51.95V16.52Z" fill="white"/>
<path d="M66.78 22.21C66.78 22.83 66.68 23.43 66.48 23.99C66.28 24.56 65.99 25.05 65.6 25.49C65.22 25.92 64.74 26.27 64.18 26.52C63.61 26.77 62.97 26.9 62.24 26.9C61.84 26.9 61.44 26.86 61.05 26.76C60.66 26.67 60.3 26.52 59.98 26.31C59.66 26.1 59.4 25.82 59.21 25.48C59.02 25.14 58.92 24.71 58.92 24.21C58.92 23.55 59.14 23.01 59.58 22.61C60.02 22.21 60.59 21.9 61.29 21.69C61.98 21.48 62.76 21.34 63.62 21.27C64.48 21.2 65.33 21.16 66.18 21.16H66.79V22.21H66.78ZM68.72 25.05V18.85C68.72 17.98 68.58 17.23 68.3 16.58C68.02 15.94 67.62 15.4 67.12 14.98C66.62 14.56 66.03 14.24 65.37 14.03C64.7 13.82 63.99 13.71 63.22 13.71C62.01 13.71 60.92 13.9 59.97 14.28C59.01 14.66 58.24 15.15 57.65 15.73L58.8 17.09C59.3 16.59 59.92 16.18 60.65 15.88C61.38 15.58 62.16 15.43 63.01 15.43C64.24 15.43 65.18 15.73 65.82 16.33C66.47 16.93 66.79 17.84 66.79 19.06V19.51C65.5 19.51 64.25 19.56 63.05 19.65C61.85 19.74 60.79 19.94 59.86 20.26C58.93 20.57 58.19 21.05 57.64 21.69C57.09 22.33 56.81 23.19 56.81 24.29C56.81 25.08 56.97 25.75 57.28 26.29C57.59 26.84 57.99 27.28 58.46 27.63C58.93 27.98 59.46 28.22 60.03 28.37C60.61 28.52 61.17 28.6 61.71 28.6C62.86 28.6 63.84 28.39 64.66 27.98C65.48 27.57 66.21 26.89 66.85 25.94H66.91C66.91 26.32 66.93 26.72 66.97 27.12C67.01 27.52 67.06 27.9 67.12 28.24H68.97C68.89 27.84 68.83 27.34 68.79 26.76C68.74 26.16 68.72 25.6 68.72 25.05Z" fill="white"/>
<path d="M82.52 9.40002H80.46V14.07H75.18V10.9C75.18 10.4 75.22 9.92002 75.29 9.48002C75.36 9.04002 75.49 8.65002 75.68 8.32002C75.87 7.99002 76.14 7.73002 76.5 7.55002C76.85 7.37002 77.3 7.28002 77.85 7.28002C78.13 7.28002 78.38 7.30002 78.61 7.34002C78.83 7.38002 79.05 7.43002 79.28 7.49002L79.64 5.67002C79.38 5.59002 79.1 5.53002 78.79 5.50002C78.49 5.47002 78.2 5.46002 77.94 5.46002C76.31 5.46002 75.09 5.92002 74.31 6.85002C73.52 7.78002 73.13 9.05002 73.13 10.66V14.07H70.17V15.79H73.13V28.22H75.19V15.8H80.47V24.63C80.47 25.42 80.59 26.05 80.82 26.54C81.05 27.02 81.35 27.41 81.71 27.69C82.07 27.97 82.47 28.16 82.89 28.26C83.31 28.36 83.72 28.41 84.1 28.41C84.56 28.41 84.99 28.38 85.38 28.3C85.77 28.23 86.15 28.12 86.52 27.98L86.43 26.2C86.15 26.34 85.85 26.45 85.54 26.53C85.23 26.61 84.93 26.65 84.65 26.65C84.35 26.65 84.07 26.61 83.8 26.54C83.54 26.47 83.31 26.34 83.12 26.15C82.93 25.96 82.78 25.69 82.68 25.35C82.58 25.01 82.53 24.57 82.53 24.05V15.8H86.52V14.08H82.53V9.40002H82.52Z" fill="white"/>
<path d="M91.69 17.79C92.02 17.35 92.44 16.99 92.95 16.72C93.45 16.45 94.04 16.31 94.7 16.31C95.28 16.31 95.86 16.45 96.42 16.72C96.99 16.99 97.41 17.33 97.69 17.73L100.17 15.55C99.58 14.85 98.79 14.29 97.79 13.89C96.79 13.49 95.76 13.28 94.69 13.28C93.62 13.28 92.62 13.46 91.68 13.83C90.74 14.19 89.92 14.71 89.21 15.37C88.5 16.04 87.94 16.84 87.53 17.79C87.12 18.74 86.91 19.8 86.91 20.97C86.91 22.18 87.12 23.26 87.53 24.21C87.94 25.16 88.51 25.96 89.23 26.63C89.94 27.3 90.78 27.8 91.74 28.14C92.7 28.48 93.71 28.65 94.78 28.65C95.87 28.65 96.88 28.47 97.82 28.12C98.76 27.77 99.53 27.27 100.13 26.62L97.86 24.32C97.52 24.74 97.06 25.07 96.5 25.29C95.93 25.51 95.37 25.62 94.81 25.62C94.12 25.62 93.52 25.48 93.01 25.21C92.5 24.94 92.07 24.58 91.72 24.14C91.38 23.7 91.12 23.2 90.95 22.64C90.78 22.09 90.69 21.53 90.69 20.96C90.69 20.4 90.77 19.84 90.93 19.28C91.11 18.74 91.36 18.24 91.69 17.79Z" fill="white"/>
<path d="M112.1 22.6C111.93 23.17 111.67 23.67 111.33 24.11C110.99 24.55 110.55 24.92 110.03 25.2C109.51 25.48 108.88 25.62 108.15 25.62C107.42 25.62 106.8 25.48 106.27 25.2C105.75 24.92 105.31 24.56 104.97 24.11C104.63 23.67 104.37 23.16 104.2 22.6C104.03 22.04 103.94 21.47 103.94 20.91C103.94 20.35 104.03 19.79 104.2 19.23C104.37 18.68 104.63 18.18 104.97 17.73C105.31 17.29 105.75 16.93 106.27 16.66C106.79 16.39 107.42 16.25 108.15 16.25C108.88 16.25 109.5 16.39 110.03 16.66C110.55 16.93 110.99 17.29 111.33 17.73C111.67 18.18 111.93 18.67 112.1 19.23C112.27 19.79 112.36 20.34 112.36 20.91C112.36 21.48 112.27 22.04 112.1 22.6ZM113.75 15.37C113.04 14.7 112.21 14.19 111.24 13.83C110.27 13.47 109.24 13.29 108.15 13.29C107.06 13.29 106.03 13.47 105.07 13.83C104.1 14.19 103.26 14.71 102.56 15.37C101.85 16.04 101.29 16.84 100.88 17.78C100.46 18.72 100.26 19.76 100.26 20.91C100.26 22.06 100.47 23.11 100.88 24.06C101.29 25.01 101.85 25.82 102.56 26.5C103.27 27.17 104.1 27.7 105.07 28.09C106.04 28.47 107.07 28.67 108.15 28.67C109.24 28.67 110.27 28.48 111.24 28.09C112.21 27.71 113.04 27.18 113.75 26.5C114.46 25.82 115.02 25.01 115.43 24.06C115.84 23.11 116.05 22.06 116.05 20.91C116.05 19.76 115.84 18.72 115.43 17.78C115.02 16.84 114.46 16.04 113.75 15.37Z" fill="white"/>
<path d="M129.3 22.65C129.11 23.21 128.83 23.7 128.45 24.15C128.08 24.6 127.63 24.95 127.1 25.23C126.58 25.5 125.98 25.64 125.31 25.64C124.6 25.64 123.99 25.5 123.46 25.22C122.94 24.94 122.5 24.58 122.16 24.13C121.82 23.69 121.56 23.18 121.39 22.62C121.22 22.06 121.13 21.49 121.13 20.92C121.13 20.36 121.22 19.8 121.39 19.24C121.56 18.69 121.82 18.19 122.16 17.74C122.5 17.3 122.94 16.94 123.46 16.66C123.98 16.39 124.6 16.25 125.31 16.25C125.98 16.25 126.57 16.39 127.1 16.67C127.62 16.95 128.07 17.32 128.45 17.76C128.82 18.2 129.1 18.71 129.3 19.27C129.49 19.84 129.59 20.4 129.59 20.97C129.59 21.53 129.49 22.09 129.3 22.65ZM129.47 15.55H129.38C129.2 15.31 128.97 15.06 128.68 14.8C128.4 14.54 128.06 14.3 127.67 14.07C127.28 13.85 126.82 13.66 126.29 13.51C125.77 13.36 125.17 13.28 124.5 13.28C123.47 13.28 122.52 13.48 121.66 13.87C120.79 14.26 120.05 14.8 119.42 15.49C118.79 16.18 118.31 16.98 117.97 17.91C117.63 18.84 117.45 19.84 117.45 20.9C117.45 21.97 117.62 22.97 117.95 23.91C118.28 24.85 118.76 25.66 119.37 26.36C119.99 27.06 120.73 27.61 121.61 28.02C122.49 28.43 123.48 28.64 124.59 28.64C125.62 28.64 126.58 28.42 127.48 27.97C128.38 27.53 129.08 26.88 129.58 26.03H129.64V28.21H133.09V9.40002H129.46V15.55H129.47Z" fill="white"/>
<path d="M138.99 19.52C139.07 18.49 139.49 17.65 140.25 16.99C141.01 16.34 141.93 16.01 143.02 16.01C143.6 16.01 144.11 16.11 144.55 16.3C144.98 16.49 145.34 16.75 145.62 17.07C145.9 17.39 146.11 17.77 146.24 18.19C146.37 18.61 146.44 19.06 146.44 19.52H138.99ZM149.54 17.72C149.19 16.74 148.7 15.93 148.07 15.27C147.45 14.62 146.7 14.12 145.85 13.79C144.99 13.46 144.06 13.29 143.05 13.29C141.96 13.29 140.95 13.48 140.01 13.85C139.07 14.22 138.26 14.75 137.58 15.42C136.89 16.09 136.36 16.91 135.96 17.87C135.57 18.83 135.37 19.89 135.37 21.06C135.37 22.25 135.57 23.31 135.96 24.25C136.35 25.19 136.9 25.98 137.59 26.63C138.29 27.28 139.11 27.78 140.06 28.13C141.01 28.48 142.05 28.66 143.18 28.66C145.9 28.66 147.98 27.69 149.41 25.76L146.99 23.82C146.59 24.41 146.07 24.86 145.45 25.2C144.83 25.53 144.06 25.7 143.15 25.7C142.63 25.7 142.12 25.61 141.64 25.43C141.16 25.25 140.72 25 140.34 24.69C139.96 24.38 139.65 24 139.42 23.57C139.19 23.14 139.05 22.66 139.01 22.13H150.05C150.07 21.97 150.08 21.81 150.08 21.65V21.17C150.07 19.84 149.89 18.7 149.54 17.72Z" fill="white"/>
<path d="M14.79 0.950012L13.03 5.50001L16.48 4.88001L14.79 0.950012Z" fill="white"/>
<path d="M16.06 10.57C15.17 10.57 14.44 9.92 14.3 9.08L17.8 8.44C17.82 8.55 17.84 8.67 17.84 8.79C17.84 9.77 17.04 10.57 16.06 10.57ZM1.65 10.19L0.94 12.08V9.61L3.78 9.09L1.65 10.19ZM29.54 32.9L20.16 0L17.61 5.64L0 8.85V25.17L3.77 21.62L5.21 23.7L8.22 20.87L9.3 22.43L11.74 20.13L10.72 36.85H30.66L32.26 30.86L29.54 32.9Z" fill="white"/>
</g>
<defs>
<clipPath id="clip0">
<rect width="150.07" height="36.85" fill="white"/>
</clipPath>
</defs>
</svg>
